Coordinates
version=1
nRows=29
nColumns=24
inDegrees=yes

Units are S.I. units (second, meters, Newtons, ...)
Angles are in degrees.

endheader
time	pelvis_tilt	pelvis_list	pelvis_rotation	pelvis_tx	pelvis_ty	pelvis_tz	hip_flexion_r	hip_adduction_r	hip_rotation_r	knee_angle_r	ankle_angle_r	subtalar_angle_r	mtp_angle_r	hip_flexion_l	hip_adduction_l	hip_rotation_l	knee_angle_l	ankle_angle_l	subtalar_angle_l	mtp_angle_l	lumbar_extension	lumbar_bending	lumbar_rotation
      2.79500000	    -12.68972076	      7.84716487	     -0.69365713	     -2.27757701	     -0.03079349	     -0.21038246	     13.77307366	    -15.41416943	     -8.57416188	    -57.10719942	    -31.44714275	    -17.42056330	      3.82324466	     29.67649865	      9.98091217	     -1.84413904	    -21.20066083	     -1.92653935	    -13.67297173	     -8.63544744	      8.84293733	     -8.29863419	      4.09781501
      2.80000000	    -12.59214217	      7.69396733	     -0.60813448	     -2.27050584	     -0.02945192	     -0.21116789	     14.67298190	    -15.21558187	     -8.42864236	    -58.10226305	    -30.43910319	    -18.17241398	      4.03105857	     28.93383389	      9.98538700	     -1.54772547	    -20.93124801	     -1.60891063	    -13.70216214	     -8.55855749	      8.68357813	     -8.14433480	      3.87983576
      2.80500000	    -12.62002897	      7.50780530	     -0.54176340	     -2.26336128	     -0.02821450	     -0.21196417	     15.70641281	    -14.96410317	     -8.22091661	    -59.02043724	    -29.21432481	    -18.50411759	      4.33138142	     28.30908248	      9.93735291	     -1.25651478	    -20.63696678	     -1.27278890	    -13.73013018	     -8.47833708	      8.68821377	     -7.93785402	      3.66371453
      2.81000000	    -12.59461854	      7.29744708	     -0.49513175	     -2.25635252	     -0.02688388	     -0.21273243	     16.67992960	    -14.68745906	     -8.05782948	    -59.83040833	    -28.03087728	    -18.77042225	      4.63633201	     27.63803911	      9.85316481	     -0.99240975	    -20.34278738	     -0.99521478	    -13.77782702	     -8.43853277	      8.61525925	     -7.70200176	      3.46649398
      2.81500000	    -12.56359584	      7.09087224	     -0.43971801	     -2.24941772	     -0.02556525	     -0.21352494	     17.63887632	    -14.43013400	     -7.93425476	    -60.55853749	    -26.80068965	    -18.82878526	      5.01968205	     26.97277813	      9.77151832	     -0.76166925	    -20.05481143	     -0.74462324	    -13.82826114	     -8.43887323	      8.52726024	     -7.46716585	      3.25254187
      2.82000000	    -12.51376845	      6.86231529	     -0.39633958	     -2.24243545	     -0.02419845	     -0.21429768	     18.54869915	    -14.13977109	     -7.82441388	    -61.16215107	    -25.64243141	    -18.78565709	      5.44973552	     26.25970017	      9.66264489	     -0.48207849	    -19.72670324	     -0.48566153	    -13.87951934	     -8.47100659	      8.43700245	     -7.20563145	      3.06188965
      2.82500000	    -12.45144341	      6.58862999	     -0.37270172	     -2.23542836	     -0.02277370	     -0.21500073	     19.41871421	    -13.77973799	     -7.72618167	    -61.63694609	    -24.62050288	    -18.70825404	      5.84122472	     25.51313471	      9.49196608	     -0.18802093	    -19.36508823	     -0.23342497	    -13.93551275	     -8.50160369	      8.34906580	     -6.89536698	      2.87643877
      2.83000000	    -12.38906130	      6.33778300	     -0.31054834	     -2.22850402	     -0.02142905	     -0.21575553	     20.27087605	    -13.46918958	     -7.67575235	    -62.05115787	    -23.51408788	    -18.41953713	      6.34282039	     24.78401115	      9.35456120	      0.10146348	    -19.02240545	      0.00625935	    -13.96916933	     -8.55570848	      8.24552739	     -6.61426600	      2.66464097
      2.83500000	    -12.30732941	      6.14892737	     -0.20523606	     -2.22160144	     -0.02012546	     -0.21665770	     21.05313373	    -13.26447816	     -7.64891198	    -62.29035367	    -22.90572173	    -18.30655764	      9.36022933	     24.02620418	      9.31775216	      0.49369397	    -18.68504992	      0.41314060	    -13.98360718	     -9.68373746	      8.12054633	     -6.39781626	      2.44592552
      2.84000000	    -12.24028821	      5.88435135	     -0.12361430	     -2.21472436	     -0.01885274	     -0.21735271	     21.85523572	    -12.93730174	     -7.66151442	    -62.52598037	    -21.84899275	    -17.92118948	      9.75088907	     23.29518678	      9.14938469	      0.74049983	    -18.33579825	      0.66543946	    -13.94002114	     -9.66931181	      8.01641321	     -6.11310281	      2.23351506
      2.84500000	    -12.16516726	      5.63014636	     -0.00371077	     -2.20786799	     -0.01762197	     -0.21810062	     22.61603109	    -12.63813095	     -7.71800617	    -62.67362803	    -20.81643512	    -17.47976191	     10.27998721	     22.54535825	      9.00711599	      1.04837369	    -17.96307149	      0.87658643	    -13.94526163	     -9.69954163	      7.90197420	     -5.84451093	      1.99291414
      2.85000000	    -12.08548070	      5.36952209	      0.14489649	     -2.20103786	     -0.01643930	     -0.21885120	     23.33967035	    -12.34162264	     -7.82055214	    -62.72927737	    -19.81852647	    -17.02872465	     10.92589316	     21.79472102	      8.85847345	      1.34907545	    -17.59129478	      1.09343918	    -13.92780972	     -9.74429929	      7.78217306	     -5.57857724	      1.72285202
      2.85500000	    -11.98850385	      5.10315270	      0.31813535	     -2.19426716	     -0.01525885	     -0.21968203	     23.98849527	    -12.04278008	     -7.91039244	    -62.57736984	    -19.38442590	    -16.89979040	     14.15559335	     21.02226274	      8.71992421	      1.73177591	    -17.21802053	      1.37437735	    -13.93684555	    -10.35812658	      7.63291687	     -5.30152386	      1.43077767
      2.86000000	    -11.93183707	      4.82305042	      0.50149935	     -2.18751253	     -0.01421157	     -0.22037363	     24.69064091	    -11.72028845	     -8.06529253	    -62.47606505	    -18.37546155	    -16.44683617	     14.54329874	     20.31873078	      8.52934995	      1.95062398	    -16.86561869	      1.63093526	    -13.78822121	    -10.31241296	      7.53213655	     -5.02777165	      1.14107523
      2.86500000	    -11.85549008	      4.55153687	      0.71385112	     -2.18079391	     -0.01320802	     -0.22110781	     25.34143954	    -11.42150435	     -8.25366311	    -62.28942584	    -17.37701908	    -15.99684963	     15.04752988	     19.59004390	      8.35618314	      2.22470359	    -16.49978617	      1.85104560	    -13.68685176	    -10.28598457	      7.40431406	     -4.76698313	      0.81808294
      2.87000000	    -11.74363293	      4.32598303	      0.93604895	     -2.17411351	     -0.01227799	     -0.22185538	     25.93720268	    -11.18168514	     -8.44274332	    -62.02811506	    -16.42181093	    -15.58290333	     15.91570305	     18.81395245	      8.23207626	      2.57141844	    -16.11847657	      2.07761312	    -13.61397514	    -10.28873459	      7.23277535	     -4.55426938	      0.52488362
      2.87500000	    -11.67336227	      4.02733308	      1.17940908	     -2.16739261	     -0.01136361	     -0.22267660	     26.50411069	    -10.86711404	     -8.65650821	    -61.53712091	    -16.00555831	    -15.55056828	     18.90654223	     18.09552602	      8.03272198	      2.85726751	    -15.74949081	      2.31767721	    -13.55144489	    -10.50411267	      7.11992979	     -4.25602220	      0.17763411
      2.88000000	    -11.63511993	      3.75861734	      1.41421449	     -2.16074690	     -0.01061050	     -0.22335477	     27.13440268	    -10.56988394	     -8.87948253	    -61.12244442	    -15.05132411	    -15.19251743	     19.21683750	     17.44017048	      7.83404387	      3.06190905	    -15.41656645	      2.57693368	    -13.35833827	    -10.44018535	      7.03043066	     -4.00453237	     -0.15166010
      2.88500000	    -11.55000071	      3.52166174	      1.66283770	     -2.15411011	     -0.00990025	     -0.22407132	     27.68716945	    -10.32429251	     -9.12301887	    -60.62876085	    -14.13706601	    -14.86584374	     19.66972855	     16.72166631	      7.67332029	      3.33901671	    -15.06213336	      2.82191510	    -13.22748104	    -10.39370099	      6.89048605	     -3.78133405	     -0.46317154
      2.89000000	    -11.50553987	      3.26843573	      1.91733926	     -2.14745719	     -0.00927650	     -0.22478662	     28.25693608	    -10.06481275	     -9.38238692	    -60.04819406	    -13.32258772	    -14.60604155	     20.06501773	     16.06014673	      7.48749481	      3.55921712	    -14.71908748	      3.06045138	    -13.08186830	    -10.34728165	      6.79947403	     -3.54037817	     -0.80495023
      2.89500000	    -11.45338214	      3.03357909	      2.16647927	     -2.14084271	     -0.00872895	     -0.22546552	     28.80339822	     -9.82334281	     -9.63402390	    -59.39992058	    -12.57049298	    -14.38548041	     20.45770173	     15.39681434	      7.31107587	      3.79552681	    -14.38370899	      3.29847659	    -12.93524127	    -10.30160828	      6.69440159	     -3.31871586	     -1.13110344
      2.90000000	    -11.41285404	      2.81307048	      2.40832121	     -2.13425032	     -0.00827141	     -0.22611409	     29.34816917	     -9.59586729	     -9.87812577	    -58.68546190	    -11.91218932	    -14.22319626	     20.79672761	     14.75384316	      7.14004052	      4.01608635	    -14.05549192	      3.53285069	    -12.78754585	    -10.25651436	      6.59864818	     -3.11164053	     -1.45269114
      2.90500000	    -11.37798306	      2.61077965	      2.64228058	     -2.12766213	     -0.00790277	     -0.22673962	     29.88260032	     -9.38954226	    -10.11906280	    -57.90681991	    -11.35102878	    -14.11317404	     21.08793030	     14.12058489	      6.97970509	      4.22707618	    -13.73084480	      3.77101768	    -12.64029531	    -10.21011192	      6.50858780	     -2.92034259	     -1.75774975
      2.91000000	    -11.36561800	      2.42359138	      2.85404469	     -2.12110074	     -0.00764345	     -0.22730333	     30.43299544	     -9.18589740	    -10.32825321	    -57.07175261	    -10.88501655	    -14.04527471	     21.28376597	     13.52092344	      6.82341910	      4.41302204	    -13.41688724	      4.00612935	    -12.50292080	    -10.16138017	      6.43727488	     -2.74214022	     -2.06249638
      2.91500000	    -11.34305734	      2.25841974	      3.08125375	     -2.11451216	     -0.00744713	     -0.22788508	     30.94271056	     -9.02856673	    -10.57242628	    -56.17119243	    -10.49895338	    -14.00637812	     21.43875873	     12.90897766	      6.68827418	      4.59450926	    -13.10259488	      4.24555113	    -12.34373335	    -10.10697646	      6.35900383	     -2.58762937	     -2.35311478
      2.92000000	    -11.33656093	      2.11240209	      3.28438055	     -2.10793137	     -0.00735051	     -0.22841775	     31.45782675	     -8.88004722	    -10.78756836	    -55.21608901	    -10.19243165	    -13.99403094	     21.52538904	     12.31796702	      6.56287147	      4.75389080	    -12.79295811	      4.47961910	    -12.19525060	    -10.05140502	      6.29556994	     -2.44696004	     -2.62638902
      2.92500000	    -11.37817591	      1.99185684	      3.43729377	     -2.10133571	     -0.00739852	     -0.22888094	     32.02160786	     -8.73348994	    -10.94255477	    -54.21611190	     -9.94195503	    -13.97830563	     21.54285736	     11.77909277	      6.45437281	      4.87360447	    -12.48419836	      4.69961498	    -12.09997674	    -10.00161256	      6.28935481	     -2.32550478	     -2.82039908
      2.93000000	    -11.34597357	      1.87599581	      3.67687360	     -2.09476928	     -0.00741852	     -0.22939897	     32.44943884	     -8.64778923	    -11.21169604	    -53.14022857	     -9.74055237	    -13.98174435	     21.50736596	     11.17600837	      6.35446707	      5.02130409	    -12.20314259	      4.95217885	    -11.88988703	     -9.92084805	      6.18801300	     -2.22770895	     -3.15587623
      2.93500000	    -11.40254921	      1.78620219	      3.81243029	     -2.08816695	     -0.00763458	     -0.22978749	     32.98505193	     -8.52918021	    -11.35236474	    -52.02961254	     -9.56657480	    -13.94228714	     21.45982915	     10.66164652	      6.26771156	      5.09760477	    -11.90957025	      5.16573272	    -11.80664636	     -9.86729352	      6.19159961	     -2.13967811	     -3.33965221
